<svg xmlns="http://www.w3.org/2000/svg" width="48" height="48" id="money"><g transform="translate(-8 -1008.495)"><circle cx="32.001" cy="1032.495" r="24" fill="#239fdb" fill-rule="evenodd"></circle><path fill="#fff" style="line-height:normal;text-indent:0;text-align:start;text-decoration-line:none;text-decoration-style:solid;text-decoration-color:#000;text-transform:none;block-progression:tb;isolation:auto;mix-blend-mode:normal" d="M27.534 1018.487c.15 0 .299.046.44.137.28.179.474.536.476.935v.01a.5.5 0 0 0 .254.442h.002c.029.017.059.03.09.04h.002c.03.01.062.018.094.022H28.994c.016 0 .033 0 .05-.01.017 0 .033-.01.049-.012l.015-.01c.01 0 .02-.01.03-.01h.002c.015-.01.03-.012.045-.02a.485.485 0 0 0 .084-.057h.002a.512.512 0 0 0 .033-.031h.002a.505.505 0 0 0 .146-.36v-.01c.001-.097.011-.194.034-.285.068-.28.232-.515.443-.65a.78.78 0 0 1 .879 0c.28.18.476.536.478.936v.01a.5.5 0 0 0 .254.441h.002c.029.017.059.03.09.041h.002c.03.01.062.017.094.022H31.779c.034 0 .068 0 .101-.01.017 0 .033-.01.049-.012l.016-.01c.01 0 .02-.01.029-.01h.002a.487.487 0 0 0 .127-.074h.004a.512.512 0 0 0 .033-.03h.002a.5.5 0 0 0 .147-.36v-.01c.003-.4.196-.756.476-.936a.78.78 0 0 1 .879 0c.278.178.473.532.479.928 0 .01-.002.01-.002.016a.5.5 0 0 0 .443.504H34.615a.505.505 0 0 0 .181-.033h.024c.013-.01.025-.01.037-.016.015-.01.03-.016.043-.025a.5.5 0 0 0 .225-.424l-.002-.016c.005-.396.2-.75.478-.927a.78.78 0 0 1 .88 0c.275.176.466.525.474.917-.005 1.22-.492 2.393-1.373 3.319h-7.59c-.881-.926-1.368-2.099-1.373-3.319.008-.392.2-.74.476-.917.141-.09.29-.137.44-.137zm1.027 5.373h6.506v.89h-6.506zm-.23 1.89h6.91c6.625 5.539 8.332 10.553 8.332 14.288v.433c0 1.573-1.113 3.06-3.074 4.184-1.96 1.124-4.728 1.84-7.803 1.84h-1.82c-3.074 0-5.842-.716-7.803-1.84-1.96-1.124-3.072-2.61-3.072-4.184v-.433c0-3.735 1.705-8.75 8.33-14.287zm3.725 4.747c-3.59 0-6.483 2.919-6.483 6.498 0 3.58 2.893 6.5 6.483 6.5 3.588 0 6.517-2.917 6.517-6.5a.5.5 0 0 0-.039-.196h-.002c-.111-3.486-2.958-6.3-6.476-6.3zm0 1c3.048 0 5.517 2.459 5.517 5.498 0 3.04-2.469 5.5-5.517 5.5a5.474 5.474 0 0 1-5.483-5.5 5.473 5.473 0 0 1 5.483-5.498zm-2.442 2.027v.01h-.021v1h1.027c.934 0 1.405.441 1.574.99h-2.58v1h2.58c-.17.548-.64.99-1.574.99H29.593v.682l-.03.029.03.029v.26h.265l3.082 3.012.7-.715-2.415-2.358c1.097-.22 1.801-1.033 1.994-1.93h1.366v-1h-1.366c-.077-.359-.244-.7-.478-1h1.844v-1z" color="#000" font-family="sans-serif" font-weight="400" overflow="visible"></path></g></svg>
